<svg xmlns="http://www.w3.org/2000/svg" viewBox="0 0 214.96 220.69" fill="#D12122"><g id="Layer_2" data-name="Layer 2"><g id="Layer_1-2" data-name="Layer 1"><path d="M110.45,0C133,.24,156,8,176.09,23.88c15,11.79,26.71,26.13,34.32,43.68,2.56,5.9,4.48,12,4.55,18.54s-4.76,12.53-10.67,13.07c-8.09.75-14.07-3.33-15.34-10.62C187,77.63,182.2,68.06,175.41,59.46c-10.35-13.14-23.64-22.34-39.26-28.13a77.37,77.37,0,0,0-28.34-5.1,80.71,80.71,0,0,0-14.29,2,91.81,91.81,0,0,0-23.41,7.57Q39.74,51.09,28,83c-1.19,3.27-2,6.72-3.63,9.77A12.14,12.14,0,0,1,9.73,98.82c-6.62-2-10-6.36-9.71-13C.47,75.6,4.09,66.33,9.09,57.58Q29.73,21.43,68.79,6.79C81.36,2.07,95.74,0,110.45,0Z"/><path d="M100.36,220.69c-24.29-.21-51-12-73.29-34A99.79,99.79,0,0,1,4.69,153.93a59.32,59.32,0,0,1-4.35-17.6c-.62-6.69,3.59-13,9.57-14.17,7.89-1.51,14.2,2.09,16.14,9.29,6.87,25.58,22.35,44.09,46.19,55.4a80.92,80.92,0,0,0,47.25,6.78c28.42-4.15,49-19.57,62.56-44.47,3.23-5.92,5.26-12.53,7.54-18.94,2.23-6.25,7.18-9.19,14.64-8.17a12.1,12.1,0,0,1,10.7,11.64c.25,7.95-2.16,15.3-5.5,22.33C198,180,180.12,197.54,156.5,209.37,141,217.12,125.54,220.62,100.36,220.69Z"/></g></g></svg>