<svg xmlns="http://www.w3.org/2000/svg" viewBox="0 0 73.62 218.88" fill="#D12122"><g id="Layer_2" data-name="Layer 2"><g id="Layer_1-2" data-name="Layer 1"><path d="M46.16,41.34c-3.85,3.12-7.61,6.37-11.59,9.32C29,54.77,23.54,59,17.64,62.53,11,66.53,2,62.06.38,54.43-.77,49,.66,44.56,5,41.13q17.31-13.55,34.6-27.07C44,10.62,48.24,7,52.69,3.6,56.16,1,60.06-.72,64.57.3c5.2,1.17,8.28,5,8.93,11a29.41,29.41,0,0,1,.11,3.25q0,94.25,0,188.48a28.25,28.25,0,0,1-.83,6.66c-1.23,5-6.22,8.8-11.83,9.17-6,.4-10.87-2.09-12.71-7.2A26,26,0,0,1,47,203.07q-.1-78.87-.05-157.73V41.66Z"/></g></g></svg>