<svg xmlns="http://www.w3.org/2000/svg" viewBox="0 0 142.73 219.77" fill="#D12122"><g id="Layer_2" data-name="Layer 2"><g id="Layer_1-2" data-name="Layer 1"><path d="M142.19,69c-.23,11.38-1.87,22.52-7.84,32.22A184.14,184.14,0,0,1,117,124.33c-13,15.14-26.53,29.88-39.81,44.8-3.65,4.11-7.93,6.31-13.64,5.69-6.66-.72-14.13-11.5-8.35-18.46,3.5-4.22,6.94-8.5,10.52-12.65,13-15.05,26.27-29.88,39-45.16,6.81-8.17,11.38-17.59,10.92-28.74-.75-18.3-9.54-31.58-25.91-39.22-23.14-10.8-51.95-1.17-61.66,25.7a69.86,69.86,0,0,0-3,12.29C23.66,77.05,13.42,81,5.89,75.71A12.79,12.79,0,0,1,0,64.26C.39,50.7,5.28,38.82,13.64,28.31A74.84,74.84,0,0,1,51.29,2.89,68.23,68.23,0,0,1,82.4,1a71,71,0,0,1,42,22.68c8.57,9.3,14.37,20.12,16.42,32.72C141.46,60.52,141.73,64.76,142.19,69Z"/><path d="M70.09,219.76c-18.24,0-36.47,0-54.71,0a63.21,63.21,0,0,1-9.89-1,5.67,5.67,0,0,1-5.12-5.06c-.34-2.71,1.19-4.49,3.31-6,13.53-9.47,28.51-13.77,45.05-13.6,24.48.26,49,0,73.44.13a53.77,53.77,0,0,1,11.83,1.5,10.69,10.69,0,0,1,8.72,10.45c.21,5.62-3,10.8-8.09,12.49a21.61,21.61,0,0,1-6.59,1C108.72,219.79,89.41,219.76,70.09,219.76Z"/></g></g></svg>