<svg xmlns="http://www.w3.org/2000/svg" viewBox="0 0 118.68 223.19" fill="#D12122"><g id="Layer_2" data-name="Layer 2"><g id="Layer_1-2" data-name="Layer 1"><path d="M62.47,223.19c-26.67-.6-49.83-16.93-58.8-41.85A63.54,63.54,0,0,1,0,161.55a12.6,12.6,0,0,1,10.71-13,12.26,12.26,0,0,1,13.77,9c.86,3.09.68,6.44,1.25,9.62,2.46,13.55,10.32,22.92,22.9,28.06a36.59,36.59,0,0,0,43.25-12.36c1.47-2,2.58-4.27,4-6.31a12.44,12.44,0,0,1,13.54-5.18,12,12,0,0,1,9.21,10.57,16,16,0,0,1-1.86,8.3c-8.61,15.76-21.67,26.07-39.13,30.48C72.7,221.89,67.54,222.36,62.47,223.19Z"/><path d="M66.74,0c19.34.84,37.7,11.25,49.9,32.06a12.09,12.09,0,0,1-.12,13,11.6,11.6,0,0,1-11.1,5.9,12.11,12.11,0,0,1-10.29-6.11c-3.72-6.26-8.36-11.57-14.82-15.15A37.11,37.11,0,0,0,26.19,53.05,49.93,49.93,0,0,0,25,62.19c-.47,7.12-5.9,12.23-13,12A12.35,12.35,0,0,1,0,61.4C1.15,36.2,12.93,17.67,35.38,6.15,43.72,1.87,52.73,0,66.74,0Z"/><path d="M49.93,113.22c0-8.45,4.77-13.64,11.42-14,8-.51,15.61-2.29,22.26-7.1,4.88-3.53,8.45-8.15,11.62-13.21a12.45,12.45,0,0,1,21.6,12.37,60.29,60.29,0,0,1-14.77,18c-2.43,2-2.43,2.09-.08,4a64.52,64.52,0,0,1,14.43,17.38c5,8.51.19,18.39-9.55,19.31-4.4.41-8-1.64-10.81-5.14-3.19-4-6.09-8.37-9.77-11.89-5.75-5.51-13-8.15-21-8.79-2.63-.21-5.44-.32-7.82-1.3C52.52,120.84,50,116.79,49.93,113.22Z"/></g></g></svg>