<svg xmlns="http://www.w3.org/2000/svg" viewBox="0 0 160.74 221.3" fill="#D12122"><g id="Layer_2" data-name="Layer 2"><g id="Layer_1-2" data-name="Layer 1"><path d="M38.53,142.41H42.2c11.17,0,22.33,0,33.5,0,5.4,0,9.6,2.16,12.11,6.93,4.11,7.82-1.75,17.64-10.77,18.2-2.83.17-5.67.07-8.5.07-18.25,0-36.5,0-54.75,0C6.27,167.58,1,163,.09,155.79a12.89,12.89,0,0,1,3-9.73q11.54-14.76,23-29.54L106,14.15c2.3-3,4.59-5.92,6.94-8.84,3.68-4.56,10-6.47,15-4.6,6.94,2.58,10.4,11.43,6.38,17.76-3.51,5.53-7.77,10.58-11.81,15.76Q81.41,87,40.23,139.75C39.73,140.39,39.36,141.11,38.53,142.41Z"/><path d="M112,146.12q0-30.62,0-61.23c0-5.51,2.14-9.78,7-12.32,7.76-4,17.62,1.74,18.18,10.5.09,1.33.07,2.66.07,4,0,17.41,0,34.82,0,52.24,0,2.35.6,3.3,3.08,3.15a75.16,75.16,0,0,1,8.49,0,12.42,12.42,0,0,1,12,12.27,13.05,13.05,0,0,1-12,12.76,77.22,77.22,0,0,1-8.74,0c-2.17-.11-2.86.54-2.84,2.79q.14,19,0,38a12.77,12.77,0,0,1-10.56,12.72,12.42,12.42,0,0,1-14.54-11c-.12-1.41-.11-2.83-.11-4.25Z"/></g></g></svg>