<svg xmlns="http://www.w3.org/2000/svg" viewBox="0 0 143.22 220.11" fill="#D12122"><g id="Layer_2" data-name="Layer 2"><g id="Layer_1-2" data-name="Layer 1"><path d="M37.76,81.11c3.84-1.64,7-3.2,10.36-4.4,9.4-3.38,19.08-3.43,28.85-2.2a76.06,76.06,0,0,1,26.75,8.33c17.09,9.16,29,22.85,35.37,41.19,5.86,16.81,5.06,33.62.21,50.55-5.51,19.25-17.66,32.84-35,42.13-4.54,2.43-9.34,4.41-14.8,2.84a10,10,0,0,1-7.41-11.17,16.27,16.27,0,0,1,6.39-11.18c4.37-3.45,8.91-6.7,13.29-10.13,10.22-8,15-18.8,16-31.5.86-11.66-1.08-22.73-7.38-32.79-6.59-10.5-16.2-17-27.85-20.63A67.94,67.94,0,0,0,60.86,99c-10.4.19-19.27,3.69-26.22,11.76-3.95,4.58-9,6.39-15.06,4.49-4.74-1.49-7.23-4.75-7.27-9.81-.06-9.33,0-18.66,0-28q0-31.86,0-63.74C12.31,7,15.56,2.52,21.62.55c6.72-2.18,14.55,2.33,15.93,9.3a33.06,33.06,0,0,1,.56,6.45q-.12,31-.35,62Z"/><path d="M46.19,219.87c-16.06-1-27.38-9.81-36.76-21.72C4,191.3.24,183.61,0,174.7a20.68,20.68,0,0,1,1.49-8.47c1.88-4.43,5.79-6.16,10.54-6,4.56.1,8.1,1.78,9.78,6.29,3.73,10,9.79,18.33,18.74,24.27a84.76,84.76,0,0,0,10.34,5.44c4.85,2.34,7.63,6.1,8,11.45s-2.42,8.92-6.94,11.13C50.25,219.59,48.12,219.52,46.19,219.87Z"/><path d="M100,27.85c-8.58,0-17.16.11-25.73,0A12.84,12.84,0,0,1,61.55,12.15,12.51,12.51,0,0,1,71.82,2.84a29.18,29.18,0,0,1,3.24-.18c16.74,0,33.48,0,50.21,0,5.68,0,10.15,2.08,12.66,7.24,4,8.19-2.25,17.75-11.7,17.94C117.49,28,108.74,27.85,100,27.85Z"/></g></g></svg>