<svg xmlns="http://www.w3.org/2000/svg" viewBox="0 0 161.13 220.16" fill="#D12122"><g id="Layer_2" data-name="Layer 2"><g id="Layer_1-2" data-name="Layer 1"><path d="M0,146.21a79,79,0,0,1,13.2-43.1Q44.41,55.41,75.29,7.5C77.9,3.47,81.19.57,86.2.07s8.93,1.61,11.88,5.48c2.82,3.7,3.88,8.07,1.55,12.17C95.41,25.15,90.7,32.31,86.06,39.5Q60.43,79.23,34.73,118.92c-7.44,11.55-9,24.2-6.95,37.6C30,171,38.31,181.11,50.17,188.88c5,3.28,10,6.66,14.69,10.31a11.69,11.69,0,0,1,4.57,10.31c-.32,5.84-3.89,9.79-9.72,10.49-7.7.92-14.45-1.93-20.77-5.74C23.21,204.78,13.06,190.62,6,174A74.27,74.27,0,0,1,0,146.21Z"/><path d="M161.13,145.33a81.32,81.32,0,0,1-12,42.42c-6.59,11-15,20.3-26.39,26.63a42.39,42.39,0,0,1-18.65,5.72c-9.16.45-14-5.18-12.24-14.39a15.94,15.94,0,0,1,9.69-11.92c10.08-4.45,18.57-10.7,24.62-20,6.92-10.61,9.2-22.31,7.91-34.82-.74-7.08-2.17-14-5.5-20.34-5.19-10-13.32-16.12-24.14-18.93A20.44,20.44,0,0,1,90.22,87.5c-2.86-6.63.25-12.68,7.16-14.88,5.21-1.65,10.24-.87,15.23.55,20,5.7,32.45,19.69,40.93,37.82A81.63,81.63,0,0,1,161.13,145.33Z"/></g></g></svg>