<svg xmlns="http://www.w3.org/2000/svg" viewBox="0 0 149.76 218.46" fill="#D12122"><g id="Layer_2" data-name="Layer 2"><g id="Layer_1-2" data-name="Layer 1"><path d="M37.34,218.46c-9.4-.25-17.51-9.27-11.67-20.26,12.45-23.42,24.67-47,37-70.46L98.51,59.26a12.71,12.71,0,0,1,17.12-5.49C122.14,57,125,64.61,121.8,70.89c-9.21,17.88-18.6,35.68-27.92,53.51q-22.36,42.75-44.71,85.53C46.49,215.08,42.48,218.05,37.34,218.46Z"/><path d="M75,.05c20.41,0,40.82,0,61.23,0,7.89,0,13.54,5.66,13.49,13.27,0,6.6-5.19,11.93-12.14,12.56-.83.07-1.67.07-2.5.07Q74.9,26,14.66,26C9.42,26,5,24.45,2,19.88-3.24,11.75,2.38.63,12.06.14,17-.11,21.88.05,26.8.05Q50.92,0,75,.05Z"/></g></g></svg>