<svg xmlns="http://www.w3.org/2000/svg" viewBox="0 0 141.98 220.13" fill="#D12122"><g id="Layer_2" data-name="Layer 2"><g id="Layer_1-2" data-name="Layer 1"><path d="M138.77,57.91c-.2,19.64-7,34.42-20.29,46.25-2.88,2.56-2.89,2.53,0,4.83,11.14,8.75,18.78,20,21.62,33.79,5.2,25.13-.44,47.61-19.14,65.94-6,5.93-13.43,9.92-22,10.74a26.64,26.64,0,0,1-10.3-.86c-7.58-2.4-7.7-14.74-2.84-18.23a54.18,54.18,0,0,1,8.51-5.13c10.09-4.74,15.37-12.86,17.12-23.57a67.75,67.75,0,0,0,0-24.59c-2.61-12.94-9.81-22.19-22.18-27.14-8.45-3.38-11.18-11.88-5.91-19.31a14,14,0,0,1,4.77-3.81c7.43-4,14.17-8.82,18.76-16,5.63-8.89,6.74-18.65,4.74-28.82-2.16-11-8.34-19.08-18.14-24.65a36.25,36.25,0,0,1-8.41-7.36c-3.16-3.5-3.32-9.36-.9-13.6A12.57,12.57,0,0,1,96.64.13c9.86,1.55,17.54,7,24.12,14.07A65.44,65.44,0,0,1,138.77,57.91Z"/><path d="M0,158.92c.73-21.37,8.38-38,24.44-50.5,1.75-1.37,1.74-2.18.07-3.58A58.66,58.66,0,0,1,4.4,72.07,59.9,59.9,0,0,1,6.13,40.26C10.18,27.53,17,16.57,27.78,8.35,32.89,4.44,38.38,1.2,44.93.21A12.59,12.59,0,0,1,58.22,6.94a12.16,12.16,0,0,1-2.86,14.77c-3.88,3.24-8.23,5.89-12.2,9-11,8.73-15,20.43-13.61,34.08C31.1,80.45,40.86,90.14,54,96.77c7.64,3.84,8.28,11.25,6.25,17.11-.92,2.65-3,4.1-5.52,5.06-7.63,3-14.3,7.18-18.71,14.27-6,9.65-7.64,20.26-6.5,31.41a44.86,44.86,0,0,0,6.5,19.71A31.93,31.93,0,0,0,49.36,196a33.77,33.77,0,0,1,6.12,3.79,9.86,9.86,0,0,1,.81,15.27C51.5,219.84,45.6,221,39.2,219.55c-9.14-2-15.9-7.73-21.56-14.83C6.67,191,.73,175.27,0,158.92Z"/></g></g></svg>