<svg xmlns="http://www.w3.org/2000/svg" viewBox="0 0 161.36 220.23" fill="#D12122"><g id="Layer_2" data-name="Layer 2"><g id="Layer_1-2" data-name="Layer 1"><path d="M161.34,71.87c.32,15.62-3.35,30.12-11.89,43.35q-31.09,48.22-62,96.55c-2.64,4.1-5.62,7.57-10.89,8.3a12.52,12.52,0,0,1-12.92-5.71c-3-4.43-3.27-9.21-.32-13.85Q75,182.08,86.78,163.71c13.19-20.58,26.5-41.1,39.58-61.76,16-25.24,8.3-58.69-18.73-73.08-3.29-1.75-6.76-3.21-9.87-5.24A12,12,0,0,1,92,11.7c.61-5.62,3.88-9.27,9.16-11,4.26-1.42,8.43-.3,12.48,1C131.8,7.79,144.18,20.37,152.75,37A78.79,78.79,0,0,1,161.34,71.87Z"/><path d="M0,74.37C1.71,48.28,11,25.9,32.24,9.58A45.91,45.91,0,0,1,55.55.15C60.71-.39,64.84,1.75,67.72,6a11.64,11.64,0,0,1,.64,12.35,16.55,16.55,0,0,1-8.82,7.76c-16.29,6.55-26.8,18.28-31,35.27C22.18,87,36.87,113.13,61.88,121.73a15,15,0,0,1,10.41,12.66c.72,5.38-1.68,9.7-6.34,12.63-3.85,2.42-8,2-12.12,1.09-12.83-2.77-23.22-9.69-32-19.22A82.39,82.39,0,0,1,1.44,87.61C.63,83.29.47,78.85,0,74.37Z"/></g></g></svg>